<svg id="icon-0" xmlns="http://www.w3.org/2000/svg" viewBox="0 0 616.52 206.57"><g id="tight-bounds"><path id="text-0" d="M258.26,350.65H191.13v-17.6l14.19-2.88V236.39l-14.19-2.85V215.83h60.45q24.66,0,38.46,9.33t13.76,27.72h0a30.73,30.73,0,0,1-4.74,16.88A29.17,29.17,0,0,1,284.92,281h0a30.43,30.43,0,0,1,13.31,6.11,26.8,26.8,0,0,1,7.77,10.5A34.74,34.74,0,0,1,308.54,311h0q0,19.53-13,29.58t-37.28,10Zm-23.14-58.52V328h23.14q10.2,0,15.43-4.25t5.24-12.7h0a24.07,24.07,0,0,0-2-10.47,13.27,13.27,0,0,0-6.11-6.29A23.55,23.55,0,0,0,260,292.13H235.12Zm0-53.51V272h16.31q11.11,0,16.88-4t5.8-12.14h0q0-8.88-5.65-13.05t-16.88-4.17H235.12Zm167.28,112H344.08v-17.6l14.26-2.88V238.81H335.66l-1.21,15.36H312V215.83H434.72v38.34H412.15l-1.21-15.36H388.15v91.36l14.25,2.88Zm102,1.93h0q-19.43,0-34.25-8a56.53,56.53,0,0,1-23.05-22.87q-8.24-14.86-8.23-35.68h0v-5.46q0-19.45,7.73-34.51a57.51,57.51,0,0,1,22.15-23.59q14.44-8.58,34.28-8.57h0a89,89,0,0,1,26.25,3.79,64.5,64.5,0,0,1,22.64,12.4h0v33.64H530l-3-20.22a42.69,42.69,0,0,0-6.67-3.67,34.94,34.94,0,0,0-7.59-2.43,43.39,43.39,0,0,0-8.8-.84h0a33.19,33.19,0,0,0-18.77,5.28,34.26,34.26,0,0,0-12.29,15q-4.27,9.78-4.28,23.48h0V286q0,13.23,4.44,23.13a35.48,35.48,0,0,0,12.62,15.4A33.88,33.88,0,0,0,504.91,330h0a53.46,53.46,0,0,0,11.38-1.25,65.92,65.92,0,0,0,10.73-3.3h0l3.07-19h21.85v33.07a77.47,77.47,0,0,1-20.1,9.21A90.75,90.75,0,0,1,504.42,352.58Z" transform="translate(-191.13 -208.47)"/><path id="text-1" d="M340.12,387.65V386a.42.42,0,0,1,.08-.26.38.38,0,0,1,.3-.09h17.15a.39.39,0,0,1,.28.09.34.34,0,0,1,.1.26h0v1.65c0,.22-.13.32-.38.32h-6.47c-.24,0-.35.11-.35.32h0v20.59c0,.27-.13.41-.39.41h-2.29c-.26,0-.38-.14-.38-.41h0V388.32c0-.23-.11-.35-.32-.35H340.5c-.25,0-.38-.1-.38-.32ZM358,409.29h0a.31.31,0,0,1-.28-.14.59.59,0,0,1,0-.4h0L366,386.09a.87.87,0,0,1,.22-.34.63.63,0,0,1,.41-.1h2.49a.69.69,0,0,1,.73.47h0L378,408.75a.45.45,0,0,1,0,.36.29.29,0,0,1-.3.18h-2.26a.48.48,0,0,1-.51-.32h0l-2.2-6.18a.78.78,0,0,0-.13-.19.38.38,0,0,0-.25-.06h-9.28a.36.36,0,0,0-.38.25h0L360.42,409a.33.33,0,0,1-.15.2.57.57,0,0,1-.33.08H358Zm5.77-9.18h7.71c.25,0,.34-.13.25-.41h0l-3.82-10.48c-.09-.2-.17-.29-.24-.29s-.14.09-.21.29h0l-3.88,10.54c-.11.24-.05.35.19.35Zm35.47,8.51h0c.18.26.24.43.17.53a.49.49,0,0,1-.4.14h-2.42a.56.56,0,0,1-.51-.25h0l-6.05-9.12c-.13-.21-.24-.32-.34-.32s-.23.13-.4.39h0l-6,9.05a.41.41,0,0,1-.23.19.85.85,0,0,1-.31.06h-2.1a.4.4,0,0,1-.35-.14c-.07-.1,0-.27.19-.53h0l7.3-11a.65.65,0,0,0,.14-.4.89.89,0,0,0-.17-.4h0l-7.11-10.71a.34.34,0,0,1-.07-.3c0-.12.11-.17.25-.17h2.59a.78.78,0,0,1,.36.06.4.4,0,0,1,.18.22h0l5.58,8.51c.11.15.21.22.3.22s.2-.07.31-.22h0l5.57-8.51a.56.56,0,0,1,.21-.22.61.61,0,0,1,.3-.06h2.33c.15,0,.23,0,.23.14a.34.34,0,0,1-.07.27h0l-7.08,10.55a.61.61,0,0,0-.13.33.75.75,0,0,0,.13.37h0Zm5.06-23h2.29c.26,0,.38.13.38.41h0v22.69a.58.58,0,0,1-.12.43.74.74,0,0,1-.45.11h-2a.57.57,0,0,1-.38-.09.52.52,0,0,1-.1-.35h0V386.09c0-.3.13-.44.39-.44ZM432.78,390h0a7.3,7.3,0,0,0-2.13-1.69,7,7,0,0,0-3.28-.7h0a6,6,0,0,0-3.76,1.06,3.46,3.46,0,0,0-1.37,2.93h0a3.54,3.54,0,0,0,.23,1.18,3.24,3.24,0,0,0,1,1.3,6.66,6.66,0,0,0,2.2,1.15h0l4.62,1.53a8.36,8.36,0,0,1,4.11,2.53,5.91,5.91,0,0,1,1.21,3.72h0a6,6,0,0,1-1,3.51,6.4,6.4,0,0,1-2.9,2.27,11.78,11.78,0,0,1-4.53.78h0a12.78,12.78,0,0,1-3.53-.46,9.72,9.72,0,0,1-2.89-1.34,8.41,8.41,0,0,1-2.15-2.18h0a.51.51,0,0,1-.11-.4.74.74,0,0,1,.3-.37h0l1.15-.79a1.1,1.1,0,0,1,.49-.2.38.38,0,0,1,.31.2h0a12.28,12.28,0,0,0,1.69,1.79,5.32,5.32,0,0,0,1.92,1.07,8.81,8.81,0,0,0,2.7.35h0a8.06,8.06,0,0,0,4.08-.91,3.19,3.19,0,0,0,1.56-3h0a3.31,3.31,0,0,0-.32-1.45,3.39,3.39,0,0,0-1.09-1.21,9.8,9.8,0,0,0-2.19-1.1h0L424.21,398a8.53,8.53,0,0,1-2.83-1.56,5.86,5.86,0,0,1-2.08-4.47h0a6,6,0,0,1,1-3.49,6.69,6.69,0,0,1,2.82-2.29,10.23,10.23,0,0,1,4.23-.81h0a10.68,10.68,0,0,1,3,.38,9.62,9.62,0,0,1,2.49,1.08,8.53,8.53,0,0,1,2,1.69h0a.53.53,0,0,1,.16.29c0,.11,0,.21-.16.32h0l-1.46,1.15a.29.29,0,0,1-.26,0,1.93,1.93,0,0,1-.32-.24Zm7.65-4h0c0-.3.13-.44.39-.44h14.3c.22,0,.32.11.32.35h0v1.62c0,.26-.14.38-.41.38H443.91q-.42,0-.42.39h0v7.45a.31.31,0,0,0,.35.35h8.26a.32.32,0,0,1,.35.36h0v1.68a.28.28,0,0,1-.07.21.36.36,0,0,1-.28.08h-8.26a.31.31,0,0,0-.35.35h0v7.75a.28.28,0,0,0,.32.31h11.7c.23,0,.35.11.35.32h0v1.69a.37.37,0,0,1-.09.26.33.33,0,0,1-.26.09H440.88a.39.39,0,0,1-.45-.44h0Zm36.9,22.6h0a.45.45,0,0,1,0,.41.37.37,0,0,1-.34.19h-2.33a.54.54,0,0,1-.51-.38h0l-4.11-10c-.1-.23-.36-.35-.76-.35h-5.39a.35.35,0,0,0-.3.1.39.39,0,0,0-.08.25h0v9.91q0,.51-.54.51h-2.07a.46.46,0,0,1-.35-.11.4.4,0,0,1-.1-.3h0V386.09c0-.3.13-.44.38-.44h8.89a9.67,9.67,0,0,1,5.85,1.54,5.34,5.34,0,0,1,2.09,4.57h0a6.32,6.32,0,0,1-.7,3.08,5.85,5.85,0,0,1-1.77,2A7.89,7.89,0,0,1,473,398h0c-.17,0-.22.12-.13.32h0Zm-8.51-12.4h0a7.25,7.25,0,0,0,4.23-1,3.7,3.7,0,0,0,1.41-3.22h0a3.84,3.84,0,0,0-1.25-3.15,5.72,5.72,0,0,0-3.66-1H464c-.3,0-.45.11-.45.35h0v7.65c0,.27.09.41.29.41h5Zm31-10.64h0a.34.34,0,0,1,.32.14.32.32,0,0,1,0,.33h0l-8.06,22.69a.67.67,0,0,1-.7.48h-2.17c-.43,0-.68-.15-.77-.44h0l-7.9-22.73a.38.38,0,0,1,0-.33.35.35,0,0,1,.32-.14h2.2a.5.5,0,0,1,.54.38h0l6.63,19.31q.26.6.48,0h0L497.5,386a.45.45,0,0,1,.48-.35h1.88Zm5.26,0h2.29c.26,0,.39.13.39.41h0v22.69a.58.58,0,0,1-.13.43.74.74,0,0,1-.45.11h-2a.59.59,0,0,1-.38-.09.53.53,0,0,1-.09-.35h0V386.09c0-.3.12-.44.38-.44Zm17.81-.32h0a8.91,8.91,0,0,1,3.08.53,9.66,9.66,0,0,1,2.66,1.41,8.25,8.25,0,0,1,1.94,2.07,6.28,6.28,0,0,1,1,2.52h0a.6.6,0,0,1,0,.38c0,.07-.11.1-.23.1h0l-2.39.19a.22.22,0,0,1-.23-.06.79.79,0,0,1-.09-.26h0a5.84,5.84,0,0,0-1.93-3.3,5.5,5.5,0,0,0-3.68-1.26h0a5.92,5.92,0,0,0-5.1,2.46c-1.19,1.63-1.78,4.1-1.78,7.39h0q0,4.78,1.75,7.24a6.08,6.08,0,0,0,5.29,2.45h0a6.32,6.32,0,0,0,3.77-1.08,7.39,7.39,0,0,0,2.44-3.48h0c.07-.13.19-.17.38-.13h0l1.89.45a.27.27,0,0,1,.15.13c0,.06,0,.17,0,.32h0a7.5,7.5,0,0,1-.78,1.81,8.49,8.49,0,0,1-1.29,1.67,9,9,0,0,1-1.78,1.41,9.11,9.11,0,0,1-2.25,1,9.78,9.78,0,0,1-2.66.35h0a9.94,9.94,0,0,1-5.44-1.46,9.31,9.31,0,0,1-3.47-4.21,16.33,16.33,0,0,1-1.19-6.5h0a16.21,16.21,0,0,1,1.19-6.49,9.3,9.3,0,0,1,3.44-4.18,9.69,9.69,0,0,1,5.34-1.44Zm13.57.76h0c0-.3.13-.44.39-.44h14.3c.22,0,.32.11.32.35h0v1.62c0,.26-.14.38-.41.38H540q-.42,0-.42.39h0v7.45a.31.31,0,0,0,.35.35h8.26a.32.32,0,0,1,.35.36h0v1.68a.28.28,0,0,1-.07.21.36.36,0,0,1-.28.08h-8.26a.31.31,0,0,0-.35.35h0v7.75a.28.28,0,0,0,.32.31h11.7c.23,0,.35.11.35.32h0v1.69a.42.42,0,0,1-.08.26.35.35,0,0,1-.27.09H537a.39.39,0,0,1-.45-.44h0Z" transform="translate(-191.13 -208.47)"/><path d="M793.36,292.4,762.3,234.17H727.13v-25.7H665.2v25.7H630L599,292.4H584.68v89.18H607V415H636.7V381.58H755.62V415h29.73V381.58h22.3V292.4Zm-150-35.91H748.92l19.16,35.91H624.23Zm-21.54,99.06A18.57,18.57,0,1,1,640.42,337,18.57,18.57,0,0,1,621.84,355.55Zm148.65,0A18.57,18.57,0,1,1,789.06,337,18.56,18.56,0,0,1,770.49,355.55Z" transform="translate(-191.13 -208.47)"/></g></svg>