<svg xmlns="http://www.w3.org/2000/svg" viewBox="0 0 616.52 206.57"><g id="Layer_2" data-name="Layer 2"><g id="icon-0"><g id="tight-bounds"><path id="text-0" d="M67.12,142.18H0V124.59l14.18-2.89V27.92L0,25.08V7.37H60.45q24.64,0,38.45,9.32t13.77,27.73h0a30.69,30.69,0,0,1-4.74,16.87A29.22,29.22,0,0,1,93.78,72.56h0a30.4,30.4,0,0,1,13.32,6.1,26.93,26.93,0,0,1,7.77,10.51,34.92,34.92,0,0,1,2.54,13.38h0q0,19.53-13,29.58T67.12,142.18ZM44,83.67V119.5H67.12q10.22,0,15.44-4.24t5.23-12.71h0a24.05,24.05,0,0,0-2-10.46,13.31,13.31,0,0,0-6.1-6.3,23.69,23.69,0,0,0-10.77-2.12H44Zm0-53.51V63.57H60.3q11.11,0,16.87-4.06T83,47.37h0q0-8.86-5.65-13T60.45,30.16H44Zm167.28,112H153V124.59l14.25-2.89V30.35H144.53l-1.22,15.36H120.9V7.37H243.58V45.71H221L219.8,30.35H197V121.7l14.26,2.89Zm102,1.94h0q-19.43,0-34.25-8A56.62,56.62,0,0,1,256,113.25q-8.22-14.86-8.23-35.69h0V72.1q0-19.45,7.74-34.51A57.63,57.63,0,0,1,277.64,14q14.44-8.57,34.28-8.57h0a89.27,89.27,0,0,1,26.24,3.79,64.58,64.58,0,0,1,22.64,12.4h0V55.26H338.85l-3-20.21a42.84,42.84,0,0,0-6.68-3.68,35.22,35.22,0,0,0-7.58-2.43,44.21,44.21,0,0,0-8.8-.83h0a33.24,33.24,0,0,0-18.77,5.27,34.23,34.23,0,0,0-12.29,15.06q-4.29,9.78-4.28,23.47h0v5.65q0,13.25,4.43,23.13a35.51,35.51,0,0,0,12.63,15.4,33.85,33.85,0,0,0,19.23,5.46h0a52.82,52.82,0,0,0,11.38-1.25,64.3,64.3,0,0,0,10.73-3.3h0L339,98H360.8v33.07a77.8,77.8,0,0,1-20.1,9.22A91,91,0,0,1,313.29,144.12Z"/><path id="text-1" d="M149,179.19v-1.66a.34.34,0,0,1,.08-.25.35.35,0,0,1,.3-.1h17.14a.37.37,0,0,1,.29.1.36.36,0,0,1,.1.25h0v1.66c0,.21-.13.32-.39.32H160c-.23,0-.35.1-.35.32h0v20.58c0,.28-.12.42-.38.42H157q-.39,0-.39-.42h0V179.86c0-.24-.1-.35-.32-.35h-6.94c-.26,0-.38-.11-.38-.32Zm17.91,21.64h0a.3.3,0,0,1-.28-.15.56.56,0,0,1,0-.39h0l8.25-22.66a1,1,0,0,1,.23-.34.63.63,0,0,1,.41-.11H178a.69.69,0,0,1,.73.48h0l8.16,22.63a.5.5,0,0,1,0,.36.29.29,0,0,1-.3.18H184.3a.49.49,0,0,1-.51-.32h0l-2.2-6.18a1.4,1.4,0,0,0-.13-.2.39.39,0,0,0-.26-.06h-9.27a.37.37,0,0,0-.38.26h0l-2.26,6.21a.34.34,0,0,1-.15.2.5.5,0,0,1-.33.09H166.9Zm5.76-9.18h7.72c.25,0,.34-.14.25-.42h0l-3.82-10.48c-.09-.19-.17-.29-.25-.29s-.14.1-.2.29h0l-3.89,10.55c-.1.23,0,.35.19.35Zm35.47,8.51h0c.19.25.25.43.17.52a.45.45,0,0,1-.39.15h-2.42a.55.55,0,0,1-.51-.26h0l-6.06-9.11c-.12-.21-.24-.32-.34-.32s-.22.13-.39.38h0l-6,9a.4.4,0,0,1-.23.19.74.74,0,0,1-.32.07h-2.09a.41.41,0,0,1-.36-.15c-.06-.09,0-.27.2-.52h0l7.29-11a.54.54,0,0,0,.14-.4.71.71,0,0,0-.17-.39h0l-7.1-10.71a.37.37,0,0,1-.07-.31c0-.11.11-.17.25-.17h2.59a.78.78,0,0,1,.36.06.43.43,0,0,1,.18.23h0l5.58,8.51c.1.15.2.22.3.22a.41.41,0,0,0,.3-.22h0l5.58-8.51a.66.66,0,0,1,.2-.23.68.68,0,0,1,.31-.06h2.33c.14,0,.22,0,.23.14a.37.37,0,0,1-.08.28h0l-7.07,10.54a.61.61,0,0,0-.13.33.72.72,0,0,0,.13.37h0Zm5.06-23h2.3c.25,0,.38.14.38.42h0v22.69a.51.51,0,0,1-.13.42.63.63,0,0,1-.44.12h-2a.51.51,0,0,1-.38-.1.46.46,0,0,1-.1-.35h0V177.63c0-.3.13-.45.38-.45Zm28.46,4.4h0a7.14,7.14,0,0,0-2.13-1.69,6.88,6.88,0,0,0-3.29-.7h0a6.06,6.06,0,0,0-3.76,1.05,3.49,3.49,0,0,0-1.37,2.93h0a3.53,3.53,0,0,0,.24,1.18,3.32,3.32,0,0,0,1,1.31,7,7,0,0,0,2.2,1.15h0l4.62,1.52a8.28,8.28,0,0,1,4.11,2.54,5.91,5.91,0,0,1,1.22,3.71h0a6.06,6.06,0,0,1-1,3.52,6.38,6.38,0,0,1-2.9,2.26,11.85,11.85,0,0,1-4.53.79h0a12.89,12.89,0,0,1-3.54-.47,9.53,9.53,0,0,1-2.88-1.34,8.26,8.26,0,0,1-2.15-2.18h0a.48.48,0,0,1-.12-.4.82.82,0,0,1,.31-.36h0l1.15-.8a1,1,0,0,1,.49-.19.34.34,0,0,1,.3.19h0a14.25,14.25,0,0,0,1.69,1.8,5.36,5.36,0,0,0,1.93,1.07,9.05,9.05,0,0,0,2.69.35h0a8,8,0,0,0,4.08-.91,3.21,3.21,0,0,0,1.56-3h0a3.28,3.28,0,0,0-.31-1.45,3.41,3.41,0,0,0-1.09-1.21,9.49,9.49,0,0,0-2.2-1.1h0l-4.84-1.66a8.24,8.24,0,0,1-2.84-1.56,6.06,6.06,0,0,1-1.58-2.1,5.91,5.91,0,0,1-.49-2.36h0a6,6,0,0,1,1-3.49,6.71,6.71,0,0,1,2.82-2.3,10.22,10.22,0,0,1,4.22-.81h0a11.09,11.09,0,0,1,3,.38,9.8,9.8,0,0,1,2.49,1.09,8.74,8.74,0,0,1,2,1.69h0a.5.5,0,0,1,.16.28.33.33,0,0,1-.16.32h0l-1.47,1.15c-.1.06-.19.08-.25,0a1.7,1.7,0,0,1-.32-.23Zm7.65-4h0c0-.3.13-.45.38-.45H264c.21,0,.32.12.32.35h0v1.63c0,.25-.14.38-.41.38H252.77c-.27,0-.41.13-.41.38h0v7.46a.31.31,0,0,0,.35.35H261a.31.31,0,0,1,.35.35h0v1.69a.32.32,0,0,1-.06.2c0,.06-.14.09-.29.09h-8.25a.31.31,0,0,0-.35.35h0v7.74a.29.29,0,0,0,.32.32h11.69c.24,0,.35.11.35.32h0v1.69a.34.34,0,0,1-.08.25.31.31,0,0,1-.27.1H249.75a.4.4,0,0,1-.45-.45h0Zm36.9,22.59h0a.44.44,0,0,1,0,.42.37.37,0,0,1-.33.19h-2.33a.54.54,0,0,1-.51-.39h0l-4.11-10c-.11-.24-.36-.35-.77-.35h-5.38a.38.38,0,0,0-.3.09.35.35,0,0,0-.08.26h0v9.91c0,.34-.18.51-.55.51h-2.07a.43.43,0,0,1-.35-.12.45.45,0,0,1-.09-.3h0V177.63c0-.3.12-.45.38-.45h8.89a9.74,9.74,0,0,1,5.85,1.54,5.36,5.36,0,0,1,2.09,4.58h0a6.19,6.19,0,0,1-.71,3.07,5.85,5.85,0,0,1-1.76,2,7.9,7.9,0,0,1-2.19,1.1h0c-.17,0-.21.13-.12.32h0Zm-8.51-12.4h0a7.28,7.28,0,0,0,4.22-1,3.69,3.69,0,0,0,1.42-3.22h0a3.82,3.82,0,0,0-1.26-3.16,5.69,5.69,0,0,0-3.65-1h-5.61c-.3,0-.44.12-.44.35h0v7.65c0,.28.09.41.28.41h5Zm31-10.64h0a.37.37,0,0,1,.32.14.34.34,0,0,1,0,.34h0L301,200.35a.66.66,0,0,1-.7.48h-2.16c-.43,0-.68-.15-.77-.45h0l-7.9-22.72a.37.37,0,0,1,0-.34.36.36,0,0,1,.32-.14H292a.53.53,0,0,1,.54.38h0l6.63,19.32c.17.4.33.39.47,0h0l6.73-19.31a.44.44,0,0,1,.48-.35h1.88Zm5.26,0h2.29c.26,0,.38.14.38.42h0v22.69a.55.55,0,0,1-.12.42.67.67,0,0,1-.45.12h-2a.51.51,0,0,1-.38-.1.5.5,0,0,1-.1-.35h0V177.63q0-.45.39-.45Zm17.81-.32h0a9.09,9.09,0,0,1,3.07.53,9.75,9.75,0,0,1,2.67,1.42,8.1,8.1,0,0,1,1.94,2.07,6.17,6.17,0,0,1,1,2.52h0a.69.69,0,0,1,0,.38q0,.09-.24.09h0l-2.39.19a.19.19,0,0,1-.22-.06,1,1,0,0,1-.1-.25h0a5.84,5.84,0,0,0-1.93-3.31,5.5,5.5,0,0,0-3.67-1.25h0a5.94,5.94,0,0,0-5.1,2.45c-1.19,1.64-1.79,4.1-1.79,7.4h0c0,3.18.59,5.59,1.75,7.23a6.07,6.07,0,0,0,5.29,2.45h0a6.35,6.35,0,0,0,3.78-1.08,7.42,7.42,0,0,0,2.44-3.47h0c.06-.13.19-.17.38-.13h0l1.88.45a.28.28,0,0,1,.16.12.43.43,0,0,1,0,.32h0a7.57,7.57,0,0,1-.78,1.82,8.79,8.79,0,0,1-1.29,1.67,9.25,9.25,0,0,1-1.78,1.4,9.13,9.13,0,0,1-2.25,1,9.83,9.83,0,0,1-2.66.35h0a9.81,9.81,0,0,1-5.44-1.47,9.25,9.25,0,0,1-3.47-4.21,16.09,16.09,0,0,1-1.19-6.5h0a16.07,16.07,0,0,1,1.19-6.49,9.26,9.26,0,0,1,3.44-4.17,9.61,9.61,0,0,1,5.34-1.45Zm13.57.77h0c0-.3.13-.45.38-.45h14.31c.21,0,.32.12.32.35h0v1.63c0,.25-.14.38-.42.38H348.84c-.27,0-.41.13-.41.38h0v7.46a.31.31,0,0,0,.35.35H357a.31.31,0,0,1,.35.35h0v1.69a.32.32,0,0,1-.06.2c0,.06-.14.09-.29.09h-8.25a.31.31,0,0,0-.35.35h0v7.74a.28.28,0,0,0,.32.32h11.69c.24,0,.35.11.35.32h0v1.69a.39.39,0,0,1-.07.25.34.34,0,0,1-.28.1H345.82a.4.4,0,0,1-.45-.45h0Z"/><path d="M602.22,83.93,571.17,25.7H536V0H474.07V25.7H438.88L407.83,83.93H393.54v89.19h22.3v33.45h29.73V173.12H564.48v33.45h29.73V173.12h22.31V83.93ZM452.24,48H557.79l19.15,35.91H433.1Zm-21.53,99.07a18.58,18.58,0,1,1,18.58-18.57A18.57,18.57,0,0,1,430.71,147.09Zm148.65,0a18.58,18.58,0,1,1,18.57-18.57A18.55,18.55,0,0,1,579.36,147.09Z"/></g></g></g></svg>