<svg xmlns="http://www.w3.org/2000/svg" width="65.34" height="42" viewBox="0 0 65.34 42">
  <path id="Path_15" data-name="Path 15" d="M2.46-42h9.96q5.1,0,7.44,2.37t2.34,7.29v1.68a11.532,11.532,0,0,1-1.05,5.28,6.156,6.156,0,0,1-3.21,2.94v.12q4.92,1.68,4.92,8.76v3.6q0,4.86-2.55,7.41T12.84,0H2.46Zm9.18,17.1a3.961,3.961,0,0,0,2.97-1.02,4.82,4.82,0,0,0,.99-3.42v-2.34a5.331,5.331,0,0,0-.81-3.3A3.059,3.059,0,0,0,12.24-36H9.06v11.1ZM12.84-6a3.307,3.307,0,0,0,2.58-.93,4.791,4.791,0,0,0,.84-3.21V-13.8q0-2.88-.99-3.99A4.193,4.193,0,0,0,12-18.9H9.06V-6ZM31.86-36h-6.9v-6h20.4v6h-6.9V0h-6.6ZM54.3-36H47.4v-6H67.8v6H60.9V0H54.3Z" transform="translate(-2.46 42)" fill="#44494b"/>
</svg>
